{"title":"Capture the Flag (2015) 720p BD H264 AC3 [ITRG][IndexTorrent]","uid":13960136,"size":776458828,"categoryP":"video","categoryS":"hd___movies","magnet":"?xt=urn:btih:f7b7d90f7c4bd207259b799aff2fbec85d3216f0&amp;dn=Capture+the+Flag+%282015%29+720p+BD+H264+AC3+%5BITRG%5D%5BIndexTorrent%5D&amp;tr=udp%3A%2F%2Ftracker.leechers-paradise.org%3A6969&amp;tr=udp%3A%2F%2Fzer0day.ch%3A1337&amp;tr=udp%3A%2F%2Fopen.demonii.com%3A1337&amp;tr=udp%3A%2F%2Ftracker.coppersurfer.tk%3A6969&amp;tr=udp%3A%2F%2Fexodus.desync.com%3A6969","seeders":1,"leechers":0,"uploader":"ITRG","files":5,"time":1458580932,"description":"SCREEN SHTOS\r\n\r\n \nhttp://extraimg.org/images/2016/03/21/Capture_the_Flag_2015_720p_BD_Screen1.jpg\r\n \nhttp://extraimg.org/images/2016/03/21/Capture_the_Flag_2015_720p_BD_Screen2.jpg\r\n \nhttp://extraimg.org/images/2016/03/21/Capture_the_Flag_2015_720p_BD_Screen3.jpg\r\n\r\n\r\nGeneral\r\nUnique ID                   : 260511914749475654324612563403895597057 (0xC3FCC50E3DF9659C201A90B535E9E801)\r\nComplete name               : Capture the Flag (2015) 720p BD H264 AC3 [ITRG][IndexTorrent].mkv\r\nFormat                      : Matroska\r\nFormat version              : Version 2\r\nFile size                   : 740 MiB\r\nDuration                    : 1h 34mn\r\nOverall bit rate            : 1 093 Kbps\r\nEncoded date                : UTC 2016-03-17T23:17:18Z\r\n\r\n\r\nVideo\r\nID                          : 1\r\nFormat                      : AVC\r\nFormat/Info                 : Advanced Video Codec\r\nFormat profile              :   \r\nFormat settings, CABAC      : Yes\r\nFormat settings, ReFrames   : 4 frames\r\nCodec ID                    : V_MPEG4/ISO/AVC\r\nDuration                    : 1h 34mn\r\nBit rate                    : 1 000 Kbps\r\nWidth                       : 720 pixels\r\nHeight                      : 304 pixels\r\nDisplay aspect ratio        : 2.35:1\r\nFrame rate mode             : Constant\r\nFrame rate                  : 23.976 (24000/1001) fps\r\nColor space                 : YUV\r\nChroma subsampling          : 4:2:0\r\nBit depth                   : 8 bits\r\nScan type                   : Progressive\r\nBits/(Pixel*Frame)          : 0.191\r\nStream size                 : 660 MiB (89%)\r\nWriting library             : x264 core 142 r2479 dd79a61\r\nEncoding settings           : cabac=1 / ref=1 / deblock=1:0:0 / analyse=0x1:0x111 / me=hex / subme=2 / psy=1 / psy_rd=1.00:0.00 / mixed_ref=0 / me_range=16 / chroma_me=1 / trellis=0 / 8x8dct=0 / cqm=0 / deadzone=21,11 / fast_pskip=1 / chroma_qp_offset=0 / threads=1 / lookahead_threads=1 / sliced_threads=0 / nr=0 / decimate=1 / interlaced=0 / bluray_compat=0 / constrained_intra=0 / bframes=3 / b_pyramid=2 / b_adapt=1 / b_bias=0 / direct=1 / weightb=1 / open_gop=0 / weightp=1 / keyint=240 / keyint_min=24 / scenecut=40 / intra_refresh=0 / rc_lookahead=10 / rc=abr / mbtree=1 / bitrate=1000 / ratetol=1.0 / qcomp=0.60 / qpmin=0 / qpmax=69 / qpstep=4 / vbv_maxrate=20000 / vbv_bufsize=25000 / nal_hrd=none / filler=0 / ip_ratio=1.40 / aq=1:1.00\r\nDefault                     : Yes\r\nForced                      : No\r\nColor range                 : Limited\r\nColor primaries             : BT.709\r\nTransfer characteristics    : BT.709\r\nMatrix coefficients         : BT.709\r\n\r\nAudio\r\nID                          : 2\r\nFormat                      : AC-3\r\nFormat/Info                 : Audio Coding 3\r\nMode extension              : CM (complete main)\r\nFormat settings, Endianness : Big\r\nCodec ID                    : A_AC3\r\nDuration                    : 1h 34mn\r\nBit rate mode               : Constant\r\nBit rate                    : 96.0 Kbps\r\nChannel(s)                  : 2 channels\r\nChannel positions           : Front: L R\r\nSampling rate               : 48.0 KHz\r\nFrame rate                  : 31.250 fps (1536 spf)\r\nCompression mode            : Lossy\r\nDelay relative to video     : -5ms\r\nStream size                 : 65.0 MiB (9%)\r\nTitle                       : Stereo\r\nLanguage                    : English\r\nDefault                     : Yes\r\nForced                      : No","torrent":{"xt":"urn:btih:f7b7d90f7c4bd207259b799aff2fbec85d3216f0","amp;dn":"Capture+the+Flag+%282015%29+720p+BD+H264+AC3+%5BITRG%5D%5BIndexTorrent%5D","amp;tr":["udp%3A%2F%2Ftracker.leechers-paradise.org%3A6969","udp%3A%2F%2Fzer0day.ch%3A1337","udp%3A%2F%2Fopen.demonii.com%3A1337","udp%3A%2F%2Ftracker.coppersurfer.tk%3A6969","udp%3A%2F%2Fexodus.desync.com%3A6969"],"infoHash":"f7b7d90f7c4bd207259b799aff2fbec85d3216f0","infoHashBuffer":{"type":"Buffer","data":[247,183,217,15,124,75,210,7,37,155,121,154,255,47,190,200,93,50,22,240]},"announce":[],"urlList":[]}}